<?xml version="1.0" encoding="utf-8"?>
<!-- Generator: Adobe Illustrator 24.1.2, SVG Export Plug-In . SVG Version: 6.00 Build 0)  -->
<svg version="1.1" id="Layer_1" xmlns="http://www.w3.org/2000/svg" xmlns:xlink="http://www.w3.org/1999/xlink" x="0px" y="0px"
	 viewBox="0 0 557.11 172" style="enable-background:new 0 0 557.11 172;" xml:space="preserve">
<style type="text/css">
	.st0{fill:none;stroke:#000000;stroke-width:30;stroke-miterlimit:10;}
	.st1{stroke:#000000;stroke-width:30;stroke-miterlimit:10;}
	.st2{fill:#00D1B2;}
	.st3{fill:#808080;}
	.st4{fill:#333333;}
</style>
<g>
	<g>
		<g>
			<g>
				<path class="st0" d="M20.66,117.67"/>
			</g>
		</g>
	</g>
	<g>
		<g>
			<path class="st1" d="M172,119.41"/>
		</g>
	</g>
	<g>
		<g>
			<g>
				<path class="st1" d="M90.51,175"/>
			</g>
		</g>
	</g>
	<g>
		<g>
			<path class="st2" d="M136.79,168.89H29.1c-16.07,0-29.1-13.03-29.1-29.1V32.1C0,16.03,13.03,3,29.1,3h107.68
				c16.07,0,29.1,13.03,29.1,29.1v107.68C165.89,155.86,152.86,168.89,136.79,168.89z"/>
		</g>
	</g>
	<g>
		<g>
			<path class="st3" d="M124.28,36.03c-10.07,0-19.87-2.99-28.36-8.4c-3.79-2.42-8.29-3.82-13.12-3.82s-9.33,1.4-13.12,3.82
				c-8.49,5.42-18.29,8.4-28.36,8.4H34.2v69.12c9.62,19.13,33.53,39.47,48.75,48.75h0c19.11-14.25,42.41-34.14,48.75-48.75V36.03
				H124.28z"/>
		</g>
		<g>
			<path class="st4" d="M83.16,158.54l-2.22-1.35c-14.42-8.79-39.69-29.44-50.18-50.31l-0.41-0.82V32.18h10.97
				c9.2,0,18.29-2.7,26.29-7.8c4.54-2.89,9.79-4.43,15.19-4.43c5.4,0,10.66,1.53,15.19,4.43c7.99,5.1,17.08,7.8,26.29,7.8h11.26
				v73.77l-0.32,0.73c-7.28,16.76-34.44,38.71-49.98,50.3L83.16,158.54z M38.05,104.22c8.52,16.25,28.76,34.77,44.7,45.01
				c23.73-17.92,40.03-34.16,45.09-44.91V39.88h-3.56c-10.67,0-21.2-3.11-30.43-9.01c-3.3-2.1-7.12-3.22-11.05-3.22
				c-3.93,0-7.75,1.11-11.05,3.22c-9.23,5.89-19.76,9.01-30.43,9.01h-3.27V104.22z"/>
		</g>
	</g>
	<g>
		<g>
			<g>
				<g>
					<path class="st4" d="M111.06,66.85c-0.39,0.03-0.77,0.03-1.16,0h-1.52v38.68c-0.27,0.37-0.91,0.61-1.89,0.73l-46.34-0.45
						l-0.03,0l-0.03,0c-1.11,0.03-1.71-0.22-2.09-0.54c-0.38-42.36-0.1-48.16-0.03-48.91c0.2-0.64,0.54-1.22,1.93-1.39l34.61,0
						c0.03-0.11,0.08-0.22,0.14-0.33c-0.01-0.33,0.03-0.66,0.03-0.99c0-0.13,0-0.26,0-0.4c-0.02-0.26-0.03-0.52-0.02-0.77
						c-0.01-0.3-0.02-0.59-0.02-0.89H59.71l-0.09,0.01c-2.55,0.27-4.19,1.54-4.89,3.78c-0.13,0.35-0.15,0.79-0.17,1.44
						c-0.05,1.13-0.08,3.05-0.1,5.72c-0.07,8.36-0.01,22.96,0.17,43.39l0,0.55l0.33,0.44c1.17,1.55,2.91,2.31,5.19,2.25l46.52,0.45
						l0.1-0.01c2.58-0.29,4.22-1.33,4.88-3.11l0.11-0.28V66.85H111.06z"/>
				</g>
			</g>
			<g>
				<g>
					<path class="st4" d="M57.94,56.41c0,0.02-0.01,0.03-0.01,0.05l-0.03,0.1C57.92,56.51,57.93,56.46,57.94,56.41z"/>
				</g>
			</g>
		</g>
		<g>
			<g>
				<g>
					<path class="st4" d="M104.29,71.6c-0.71,0.13-1.48,0.08-2.2-0.01c-0.29,0.03-0.59,0.06-0.9,0.08v24.63
						c-0.53,0.95-1.21,1.57-2.06,1.87H66.38c-1.22-0.45-1.59-1.05-1.74-1.56c0-1.17,0.03-6.93,0.04-12.65
						c0.02-8.07,0.01-11.23-0.02-12.56c1.23-1.32,5.67-5.54,9.87-9.44H91.9c0.1-0.26,0.18-0.52,0.26-0.78
						c-0.01-0.45-0.01-0.9-0.01-1.35c-0.04-0.42-0.07-0.83,0-1.24H73.2l-0.49,0.45c-0.03,0.03-2.79,2.59-5.51,5.17
						c-1.6,1.52-2.87,2.74-3.78,3.64c-0.56,0.55-0.97,0.98-1.27,1.29c-0.43,0.47-1.01,1.09-0.87,1.95
						c0.07,1.46,0.03,16.08-0.02,25.73l0,0.19l0.04,0.19c0.46,2.06,1.9,3.5,4.27,4.27l0.25,0.08h33.8l0.23-0.07
						c1.99-0.58,3.52-1.94,4.53-4.03l0.17-0.35V71.63C104.47,71.62,104.38,71.61,104.29,71.6z"/>
				</g>
			</g>
			<g>
				<g>
					<path class="st4" d="M64.61,70.53c0.02,0.12,0.03,0.24,0.03,0.35C64.63,70.71,64.62,70.6,64.61,70.53z"/>
				</g>
			</g>
			<g>
				<g>
					<path class="st4" d="M61.35,71.37C61.35,71.37,61.35,71.37,61.35,71.37C61.35,71.37,61.35,71.37,61.35,71.37z"/>
				</g>
			</g>
		</g>
		<g>
			<g>
				<rect x="74.5" y="71.68" class="st4" width="16.88" height="16.88"/>
			</g>
		</g>
		<g>
			<g>
				<path class="st2" d="M112.89,66.2l-1.85-1.78c1.95-2.02,2.99-4.68,2.93-7.48c-0.05-2.8-1.2-5.42-3.22-7.37
					c-4.17-4.02-10.83-3.89-14.85,0.28l-1.85-1.78c5-5.19,13.29-5.35,18.48-0.35C117.73,52.72,117.89,61.01,112.89,66.2z"/>
			</g>
		</g>
		<g>
			<g>
				<path class="st2" d="M110.98,63.39l-2.09-1.48c2.1-2.96,1.77-7.1-0.76-9.63c-2.64-2.65-6.9-2.9-9.89-0.59l-1.57-2.03
					c4.01-3.1,9.72-2.75,13.28,0.81C113.39,53.93,113.83,59.37,110.98,63.39z"/>
			</g>
		</g>
		<g>
			<g>
				<path class="st2" d="M108.06,62.33l-2.23-1.28c1.06-1.85,0.75-4.18-0.77-5.65c-1.55-1.51-4-1.73-5.83-0.52l-1.42-2.14
					c2.83-1.87,6.62-1.52,9.03,0.83C109.21,55.85,109.7,59.46,108.06,62.33z"/>
			</g>
		</g>
	</g>
</g>
<g>
	<g>
		<path d="M182.63,61.76h10.83V76.7h10.71v9.9h-10.71v41.46h-10.83V86.6h-8.53V76.58h8.53V61.76z"/>
	</g>
	<g>
		<path d="M205.33,59.83c0-2.24,0.83-4.18,2.49-5.82c1.66-1.64,3.63-2.46,5.91-2.46c2.24,0,4.18,0.82,5.82,2.46
			c1.64,1.64,2.46,3.58,2.46,5.82c0,2.28-0.82,4.23-2.46,5.85c-1.64,1.62-3.58,2.43-5.82,2.43c-2.28,0-4.25-0.81-5.91-2.43
			C206.16,64.06,205.33,62.11,205.33,59.83z M208.38,76.7h10.71v51.36h-10.71V76.7z"/>
	</g>
	<g>
		<path d="M226.91,128.06V76.7h10.58v8.53c3.11-3.44,5.93-5.97,8.47-7.56c2.53-1.6,5.35-2.4,8.47-2.4c4.65,0,8.62,1.54,11.92,4.61
			c3.3,3.07,4.95,6.77,4.95,11.08v37.11h-10.83V94.13c0-2.78-0.9-5.08-2.71-6.91c-1.81-1.83-4.1-2.74-6.88-2.74
			c-3.61,0-6.72,1.53-9.34,4.58s-3.92,6.73-3.92,11.05v27.95H226.91z"/>
	</g>
	<g>
		<path d="M271.27,76.7h12.29l18.63,27.9l12.88-27.9h11.17l-34.7,75.46h-11.31l16.96-36.74L271.27,76.7z"/>
	</g>
	<g>
		<path d="M362.73,45.42l37.57,82.64h-11.39l-9.24-20.36h-33.77l-9.13,20.36h-11.31L362.73,45.42z M362.71,70.26l-12.73,28.38h25.6
			L362.71,70.26z"/>
	</g>
	<g>
		<path d="M463.12,51.23v12.31c-8.58-4.21-16.47-6.31-23.67-6.31c-9.24,0-17.03,2.99-23.36,8.95c-6.33,5.97-9.49,13.3-9.49,22
			c0,8.86,3.24,16.26,9.71,22.18c6.48,5.93,14.59,8.89,24.33,8.89c7.08,0,14.58-2.23,22.49-6.68V125
			c-7.2,3.83-15.01,5.75-23.42,5.75c-12.33,0-22.86-4.17-31.61-12.51c-8.75-8.34-13.12-18.4-13.12-30.18
			c0-11.57,4.3-21.47,12.9-29.71c8.6-8.24,18.96-12.36,31.08-12.36C446.74,45.98,454.79,47.73,463.12,51.23z"/>
	</g>
	<g>
		<path d="M535.34,45.17l21.77,82.89h-10.65l-13.17-50.65l-22.68,53.71l-22.75-54.15l-13.35,51.09h-10.59l21.77-82.89l24.91,59.31
			L535.34,45.17z"/>
	</g>
</g>
</svg>
