<?xml version="1.0" encoding="utf-8"?>
<!-- Generator: Adobe Illustrator 24.1.2, SVG Export Plug-In . SVG Version: 6.00 Build 0)  -->
<svg version="1.1" id="Layer_1" xmlns="http://www.w3.org/2000/svg" xmlns:xlink="http://www.w3.org/1999/xlink" x="0px" y="0px"
	 viewBox="0 0 591 591" style="enable-background:new 0 0 591 591;" xml:space="preserve">
<style type="text/css">
	.st0{fill:none;stroke:#000000;stroke-width:30;stroke-miterlimit:10;}
	.st1{stroke:#000000;stroke-width:30;stroke-miterlimit:10;}
	.st2{fill:#00D1B2;}
	.st3{fill:#808080;}
	.st4{fill:#333333;}
</style>
<g>
	<g>
		<g>
			<path class="st0" d="M81.5,405.42"/>
		</g>
	</g>
	<g>
		<path class="st1" d="M601.5,411.42"/>
	</g>
	<g>
		<g>
			<path class="st1" d="M321.5,602.42"/>
		</g>
	</g>
	<g>
		<path class="st2" d="M480.5,581.42h-370c-55.23,0-100-44.77-100-100v-370c0-55.23,44.77-100,100-100h370
			c55.23,0,100,44.77,100,100v370C580.5,536.65,535.73,581.42,480.5,581.42z"/>
	</g>
	<g>
		<path class="st3" d="M437.53,124.92c-34.59,0-68.29-10.27-97.44-28.87C327.07,87.74,311.6,82.92,295,82.92
			s-32.06,4.82-45.09,13.13c-29.16,18.61-62.85,28.87-97.44,28.87H128v237.5c33.06,65.73,115.22,135.64,167.5,167.5l0,0
			c65.66-48.97,145.71-117.3,167.5-167.5v-237.5H437.53z"/>
		<path class="st4" d="M296.01,540.77l-5.19-3.16c-29.26-17.83-62.97-44.15-92.48-72.21c-25.03-23.8-58.94-60.28-78.38-98.93
			l-0.96-1.91V115.92h33.47c32.43,0,64.45-9.49,92.6-27.46c14.92-9.52,32.18-14.54,49.93-14.54c17.76,0,35.03,5.03,49.93,14.54
			c28.15,17.96,60.17,27.46,92.6,27.46H472v248.37l-0.74,1.71c-24.61,56.69-117.31,131.55-170.38,171.13L296.01,540.77z M137,360.26
			c29.79,57.56,102.12,123.43,158.02,158.77C378.97,455.89,436.6,398.43,454,360.51V133.92h-16.47
			c-35.86,0-71.23-10.47-102.28-30.28c-12.01-7.67-25.93-11.72-40.25-11.72c-14.31,0-28.23,4.05-40.25,11.72
			c-31.04,19.81-66.41,30.28-102.28,30.28H137V360.26z"/>
	</g>
	<g>
		<g>
			<g>
				<path class="st4" d="M392.11,230.81c-1.33,0.1-2.65,0.11-3.97,0h-5.23v132.91c-0.93,1.26-3.11,2.1-6.49,2.51l-159.24-1.54h-0.11
					h-0.11c-3.82,0.11-5.88-0.75-7.19-1.86c-1.3-145.54-0.33-165.47-0.11-168.05c0.69-2.21,1.85-4.18,6.64-4.76h118.92
					c0.11-0.38,0.26-0.75,0.47-1.12c-0.03-1.13,0.09-2.28,0.11-3.41c0.01-0.45,0-0.9-0.01-1.36c-0.07-0.89-0.09-1.78-0.06-2.65
					c-0.03-1.02-0.06-2.04-0.08-3.06H215.66l-0.31,0.03c-8.75,0.93-14.4,5.3-16.8,12.98c-0.44,1.21-0.5,2.7-0.6,4.95
					c-0.16,3.87-0.28,10.49-0.36,19.67c-0.24,28.74-0.04,78.89,0.59,149.07l0.02,1.91l1.15,1.52c4.01,5.33,10.01,7.93,17.82,7.72
					l159.84,1.55l0.35-0.04c8.86-0.98,14.5-4.58,16.77-10.7l0.36-0.98V230.81H392.11z"/>
			</g>
			<g>
				<path class="st4" d="M209.6,194.95c-0.02,0.05-0.03,0.1-0.05,0.16l-0.1,0.33C209.51,195.28,209.56,195.12,209.6,194.95z"/>
			</g>
		</g>
		<g>
			<g>
				<path class="st4" d="M368.86,247.12c-2.43,0.45-5.07,0.28-7.55-0.05c-1,0.11-2.04,0.21-3.11,0.26v84.64
					c-1.82,3.27-4.15,5.38-7.09,6.43H238.6c-4.18-1.54-5.47-3.59-5.99-5.35c0.02-4.02,0.1-23.8,0.14-43.48
					c0.06-27.71,0.04-38.6-0.08-43.17c4.24-4.52,19.49-19.03,33.9-32.44h59.72c0.34-0.88,0.63-1.78,0.91-2.68
					c-0.05-1.54-0.05-3.08-0.04-4.64c-0.13-1.43-0.24-2.86,0-4.27h-65.15l-1.67,1.55c-0.09,0.09-9.6,8.92-18.93,17.77
					c-5.5,5.22-9.87,9.43-12.99,12.52c-1.92,1.9-3.35,3.35-4.36,4.44c-1.49,1.6-3.48,3.73-3,6.68c0.22,5,0.09,55.25-0.05,88.4v0.65
					l0.14,0.64c1.58,7.09,6.53,12.03,14.69,14.68l0.87,0.28h116.13l0.79-0.23c6.85-1.99,12.09-6.65,15.58-13.86l0.58-1.2v-87.48
					C369.46,247.22,369.15,247.18,368.86,247.12z"/>
			</g>
			<g>
				<path class="st4" d="M232.49,243.44c0.08,0.41,0.12,0.81,0.11,1.19C232.57,244.08,232.53,243.71,232.49,243.44z"/>
			</g>
			<g>
				<path class="st4" d="M221.31,246.33C221.3,246.33,221.3,246.33,221.31,246.33C221.3,246.33,221.3,246.33,221.31,246.33z"/>
			</g>
		</g>
		<g>
			<rect x="266.5" y="247.42" class="st4" width="58" height="58"/>
		</g>
		<g>
			<path class="st2" d="M397.39,227.6l-4.32-4.16c6.95-7.22,10.67-16.71,10.48-26.73c-0.19-10.02-4.27-19.36-11.49-26.3
				c-14.9-14.34-38.69-13.88-53.03,1.01l-4.32-4.16c16.63-17.28,44.23-17.8,61.51-1.17c8.37,8.06,13.11,18.89,13.33,30.51
				C409.77,208.22,405.45,219.23,397.39,227.6z"/>
		</g>
		<g>
			<path class="st2" d="M390.67,218.13l-4.89-3.47c7.59-10.71,6.4-25.72-2.78-34.92c-9.58-9.6-24.99-10.53-35.84-2.15l-3.67-4.75
				c13.23-10.21,32.05-9.07,43.76,2.67C398.64,186.93,400.08,204.85,390.67,218.13z"/>
		</g>
		<g>
			<path class="st2" d="M380.57,214.57l-5.21-2.98c3.97-6.93,2.79-15.62-2.87-21.13c-5.8-5.65-14.96-6.48-21.78-1.97l-3.31-5
				c9.16-6.06,21.48-4.93,29.28,2.67C384.3,193.58,385.9,205.26,380.57,214.57z"/>
		</g>
	</g>
</g>
</svg>
